<svg width="24" height="24" viewBox="0 0 24 24" fill="none" xmlns="http://www.w3.org/2000/svg">
<path d="M4.87198 19.7C5.57598 17.28 6.89598 16.4 8.41398 16.4H15.586C17.104 16.4 18.424 17.28 19.128 19.7" stroke="#5350F6" stroke-width="2" stroke-linecap="round" stroke-linejoin="round"/>
<path d="M12 13.1C13.8226 13.1 15.3 11.6225 15.3 9.8C15.3 7.97746 13.8226 6.5 12 6.5C10.1775 6.5 8.70001 7.97746 8.70001 9.8C8.70001 11.6225 10.1775 13.1 12 13.1Z" stroke="#5350F6" stroke-width="2" stroke-linecap="round" stroke-linejoin="round"/>
<path d="M12 23C18.0751 23 23 18.0751 23 12C23 5.92487 18.0751 1 12 1C5.92487 1 1 5.92487 1 12C1 18.0751 5.92487 23 12 23Z" stroke="#5350F6" stroke-width="2" stroke-linecap="round" stroke-linejoin="round"/>
</svg>
